<svg xmlns="http://www.w3.org/2000/svg" width="1600" height="1000" viewBox="0 0 1600 1000">
  <defs><filter id="shadow" x="-20%" y="-20%" width="140%" height="140%"><feDropShadow dx="0" dy="20" stdDeviation="26" flood-color="#071018" flood-opacity="0.22"/></filter></defs>
  <rect width="1600" height="1000" fill="#e9eef1"/>
  <rect x="72" y="60" width="1456" height="884" rx="18" fill="#fbfcfc" stroke="#cfd8dd" filter="url(#shadow)"/>
  <rect x="72" y="60" width="1456" height="54" rx="18" fill="#eef4f6"/>
  <circle cx="102" cy="87" r="7" fill="#ff5f57"/><circle cx="126" cy="87" r="7" fill="#febc2e"/><circle cx="150" cy="87" r="7" fill="#28c840"/>
  <rect x="206" y="73" width="34" height="28" rx="8" fill="#dce7eb"/><text x="218" y="92" font-family="-apple-system" font-size="14" fill="#245f73">≡</text>
  <rect x="604" y="70" width="420" height="34" rx="12" fill="#ffffff" stroke="#c8d4d9"/><text x="720" y="92" font-family="-apple-system" font-size="14" fill="#60737d">⌘P  Search anything</text>
  <rect x="1196" y="73" width="144" height="28" rx="8" fill="#dce7eb"/><text x="1214" y="92" font-family="-apple-system" font-size="13" fill="#245f73">Indexing 38%</text>
  <rect x="1354" y="73" width="88" height="28" rx="8" fill="#dce7eb"/><text x="1375" y="92" font-family="-apple-system" font-size="13" fill="#245f73">Cancel</text>

  <rect x="72" y="114" width="74" height="830" fill="#e5edf1"/>
  <g fill="#245f73"><rect x="93" y="150" width="32" height="32" rx="9"/><rect x="93" y="202" width="32" height="32" rx="9" opacity="0.22"/><rect x="93" y="254" width="32" height="32" rx="9" opacity="0.22"/><rect x="93" y="306" width="32" height="32" rx="9" opacity="0.22"/></g>
  <text x="95" y="170" font-family="-apple-system" font-size="13" fill="#fff">L</text><text x="94" y="222" font-family="-apple-system" font-size="13" fill="#245f73">W</text><text x="99" y="274" font-family="-apple-system" font-size="13" fill="#245f73">!</text><text x="98" y="326" font-family="-apple-system" font-size="13" fill="#245f73">?</text>

  <rect x="146" y="114" width="310" height="830" fill="#f4f8fa"/>
  <text x="172" y="154" font-family="-apple-system" font-size="21" font-weight="680" fill="#172027">Command Library</text>
  <rect x="172" y="178" width="248" height="34" rx="9" fill="#ffffff" stroke="#d2dde2"/><text x="188" y="200" font-family="-apple-system" font-size="13" fill="#74858e">Filter visible files</text>
  <text x="172" y="250" font-family="-apple-system" font-size="12" font-weight="700" fill="#245f73">LIVE INDEX</text>
  <rect x="172" y="266" width="248" height="72" rx="10" fill="#e7f1f4" stroke="#c7d8de"/><text x="190" y="294" font-family="-apple-system" font-size="13" fill="#172027">idea_vault</text><text x="190" y="316" font-family="-apple-system" font-size="12" fill="#64717b">7,931 found · still scanning</text>
  <g font-family="-apple-system" font-size="13" fill="#24313a">
    <text x="178" y="386">▾ Recent Results</text><text x="196" y="420">apple-native-ui-design.md</text><text x="196" y="454">readmd-renderer-plan.md</text><text x="196" y="488">native-spike-notes.md</text><text x="178" y="538">▾ Pinned</text><text x="196" y="572">CalmPage release checklist</text>
  </g>

  <rect x="456" y="114" width="1072" height="830" fill="#fbfcfc"/>
  <rect x="520" y="150" width="944" height="86" rx="16" fill="#f2f7f8" stroke="#d4e0e5"/>
  <text x="548" y="184" font-family="-apple-system" font-size="16" font-weight="650" fill="#172027">Command Palette</text>
  <text x="548" y="214" font-family="-apple-system" font-size="24" fill="#72828a">/ native design</text>
  <g font-family="-apple-system" font-size="14">
    <rect x="520" y="254" width="944" height="54" rx="12" fill="#e6f1f4"/><text x="548" y="287" fill="#172027">Files · apple-native-ui-design-spec.md</text><text x="1260" y="287" fill="#64717b">Return</text>
    <rect x="520" y="320" width="944" height="54" rx="12" fill="#ffffff" stroke="#d6e1e5"/><text x="548" y="353" fill="#172027">Actions · Add Folder without blocking UI</text>
    <rect x="520" y="386" width="944" height="54" rx="12" fill="#ffffff" stroke="#d6e1e5"/><text x="548" y="419" fill="#172027">Headings · Folder indexing</text>
  </g>
  <g transform="translate(690 520)">
    <text x="0" y="0" font-family="New York, Georgia, serif" font-size="42" font-weight="650" fill="#172027">Command-first CalmPage</text>
    <text x="0" y="58" font-family="New York, Georgia, serif" font-size="19" fill="#2c3942">Best for large vault users. The sidebar stays compact, while the palette becomes the main navigation surface.</text>
    <text x="0" y="110" font-family="New York, Georgia, serif" font-size="18" fill="#2c3942">Folder indexing streams in with progress, and every result is searchable as soon as metadata is available.</text>
  </g>
  <text x="80" y="975" font-family="-apple-system" font-size="18" font-weight="700" fill="#245f73">Option B · Command-First Native Workspace</text>
</svg>
